<svg width="316" height="197" viewBox="0 0 316 197" fill="none" xmlns="http://www.w3.org/2000/svg">
<path fill-rule="evenodd" clip-rule="evenodd" d="M81.5 24.657C58.4 38.045 30.622 54.061 19.77 60.249C8.91901 66.437 0.035011 71.725 0.028011 72C0.013011 72.577 -1.69299 71.577 42 96.598L75.5 115.781L76 148.141L76.5 180.5L81.151 183.608C86.865 187.427 97.292 190.399 115 193.257C133.562 196.252 184.805 196.505 203.5 193.693C226.554 190.225 240.748 185.322 243.578 179.849C244.72 177.64 245 170.813 245 145.133V113.167L256.466 106.583C262.772 102.963 268.172 100 268.466 100C268.76 100 269 111.198 269 124.885V149.77L266.416 151.463C264.996 152.394 263.192 154.69 262.408 156.565C261.196 159.466 261.187 160.461 262.349 163.237C263.622 166.279 263.426 167.332 259.469 178.773L255.223 191.046L259.789 193.722C267.814 198.425 278.771 197.983 285.379 192.689L288.257 190.383L284.129 178.626C280.992 169.694 280.24 166.42 281 165C283.027 161.213 282.176 156.33 278.923 153.077C277.231 151.385 275.206 150 274.423 150C273.228 150 273 145.765 273 123.594V97.188L294.49 84.844C306.309 78.055 315.967 72.275 315.952 72C315.937 71.725 299.452 62.05 279.319 50.5C259.186 38.95 231.64 23.045 218.107 15.156C204.573 7.26701 192.938 0.582015 192.25 0.299015C191.282 -0.0979851 191 3.25701 191 15.176V30.566L225.75 50.628C245.41 61.978 260.5 71.3 260.5 72.095C260.5 72.895 245.525 82.041 225.75 93.32L191 113.14V128.605V144.07L193.25 142.876C194.488 142.219 202.794 137.471 211.709 132.325C220.623 127.179 228.611 122.703 229.459 122.378C230.819 121.855 231 124.43 231 144.304V166.822L228.016 169.333C218.166 177.621 192.208 181.576 153.164 180.737C121.141 180.05 102.075 176.517 94.503 169.869L91 166.793V146.396C91 131.492 91.315 126 92.17 126C92.813 126 99.962 129.825 108.057 134.5C116.151 139.175 123.05 143 123.387 143C123.724 143 123.988 136.137 123.974 127.75L123.947 112.5L89.724 92.994C69.511 81.473 55.5 72.895 55.5 72.04C55.5 71.191 69.303 62.634 88.928 51.318C107.314 40.717 122.739 31.661 123.205 31.195C123.672 30.728 123.929 23.589 123.777 15.331L123.5 0.315014L81.5 24.657ZM179.831 10.5C178.364 13.8 167.215 38.1 155.056 64.5L132.948 112.5L133.224 125.995L133.5 139.489L147.672 108.995C155.467 92.223 166.617 68.014 172.45 55.198L183.056 31.895L182.778 18.198L182.5 4.50001L179.831 10.5Z" fill="black"/>
</svg>
