<?xml version="1.0" encoding="UTF-8" standalone="no" ?>
<!DOCTYPE svg PUBLIC "-//W3C//DTD SVG 1.1//EN" "http://www.w3.org/Graphics/SVG/1.1/DTD/svg11.dtd">
<svg xmlns="http://www.w3.org/2000/svg" xmlns:xlink="http://www.w3.org/1999/xlink" version="1.1" width="100" height="100" viewBox="0 0 100 100" xml:space="preserve">
<desc>Created with Fabric.js 5.2.4</desc>
<defs>
</defs>
<rect x="0" y="0" width="100%" height="100%" fill="transparent"></rect>
<g transform="matrix(1 0 0 1 50 50)" id="34735f80-6ae1-41ca-a015-684a433fe5cd"  >
<rect style="stroke: none; stroke-width: 1; stroke-dasharray: none; stroke-linecap: butt; stroke-dashoffset: 0; stroke-linejoin: miter; stroke-miterlimit: 4; fill: rgb(255,255,255); fill-rule: nonzero; opacity: 1; visibility: hidden;" vector-effect="non-scaling-stroke"  x="-50" y="-50" rx="0" ry="0" width="100" height="100" />
</g>
<g transform="matrix(Infinity NaN NaN Infinity 0 0)" id="0b486289-9b4a-4ea7-9ce0-cbce3c0f35ed"  >
</g>
<g transform="matrix(1.35 0 0 1.35 50 50)" id="4f0ec981-1a0f-450e-9067-53bc25756f9c"  >
<circle style="stroke: rgb(0,0,0); stroke-width: 0; stroke-dasharray: none; stroke-linecap: butt; stroke-dashoffset: 0; stroke-linejoin: miter; stroke-miterlimit: 4; fill: rgb(255,255,255); fill-rule: nonzero; opacity: 1;" vector-effect="non-scaling-stroke"  cx="0" cy="0" r="35" />
</g>
<g transform="matrix(0.28 0 0 0.28 50 50)" id="0b921217-cfa6-4e01-bffe-cdf5bfb9d07b"  >
<path style="stroke: rgb(0,0,0); stroke-width: 0; stroke-dasharray: none; stroke-linecap: butt; stroke-dashoffset: 0; stroke-linejoin: miter; stroke-miterlimit: 4; fill: rgb(0,0,0); fill-rule: nonzero; opacity: 1;" vector-effect="non-scaling-stroke"  transform=" translate(-157.98, -98.62)" d="M 81.5 24.657 C 58.4 38.045 30.622 54.061 19.77 60.249 C 8.91901 66.437 0.035011 71.725 0.028011 72 C 0.013011 72.577 -1.69299 71.577 42 96.598 L 75.5 115.781 L 76 148.141 L 76.5 180.5 L 81.151 183.608 C 86.865 187.427 97.292 190.399 115 193.257 C 133.562 196.252 184.805 196.505 203.5 193.693 C 226.554 190.225 240.748 185.322 243.578 179.849 C 244.72 177.64 245 170.813 245 145.133 L 245 113.167 L 256.466 106.583 C 262.772 102.963 268.172 100 268.466 100 C 268.76 100 269 111.198 269 124.885 L 269 149.77 L 266.416 151.463 C 264.996 152.394 263.192 154.69 262.408 156.565 C 261.196 159.466 261.187 160.461 262.349 163.237 C 263.622 166.279 263.426 167.332 259.469 178.773 L 255.223 191.046 L 259.789 193.722 C 267.814 198.425 278.771 197.983 285.379 192.689 L 288.257 190.383 L 284.129 178.626 C 280.992 169.694 280.24 166.42 281 165 C 283.027 161.213 282.176 156.33 278.923 153.077 C 277.231 151.385 275.206 150 274.423 150 C 273.228 150 273 145.765 273 123.594 L 273 97.188 L 294.49 84.844 C 306.309 78.055 315.967 72.275 315.952 72 C 315.937 71.725 299.452 62.05 279.319 50.5 C 259.186 38.95 231.64 23.045 218.107 15.156 C 204.573 7.26701 192.938 0.582015 192.25 0.299015 C 191.282 -0.0979851 191 3.25701 191 15.176 L 191 30.566 L 225.75 50.628 C 245.41 61.978 260.5 71.3 260.5 72.095 C 260.5 72.895 245.525 82.041 225.75 93.32 L 191 113.14 L 191 128.605 L 191 144.07 L 193.25 142.876 C 194.488 142.219 202.794 137.471 211.709 132.325 C 220.623 127.179 228.611 122.703 229.459 122.378 C 230.819 121.855 231 124.43 231 144.304 L 231 166.822 L 228.016 169.333 C 218.166 177.621 192.208 181.576 153.164 180.737 C 121.141 180.05 102.075 176.517 94.503 169.869 L 91 166.793 L 91 146.396 C 91 131.492 91.315 126 92.17 126 C 92.813 126 99.962 129.825 108.057 134.5 C 116.151 139.175 123.05 143 123.387 143 C 123.724 143 123.988 136.137 123.974 127.75 L 123.947 112.5 L 89.724 92.994 C 69.511 81.473 55.5 72.895 55.5 72.04 C 55.5 71.191 69.303 62.634 88.928 51.318 C 107.314 40.717 122.739 31.661 123.205 31.195 C 123.672 30.728 123.929 23.589 123.777 15.331 L 123.5 0.315014 L 81.5 24.657 Z M 179.831 10.5 C 178.364 13.8 167.215 38.1 155.056 64.5 L 132.948 112.5 L 133.224 125.995 L 133.5 139.489 L 147.672 108.995 C 155.467 92.223 166.617 68.014 172.45 55.198 L 183.056 31.895 L 182.778 18.198 L 182.5 4.50001 L 179.831 10.5 Z" stroke-linecap="round" />
</g>
</svg>